<svg height="470pt" viewBox="-29 0 470 470.669" width="470pt" xmlns="http://www.w3.org/2000/svg"><path d="m348.613281 338.054688h-11.527343v-17.617188c0-22.851562-18.589844-41.445312-41.449219-41.445312h-100.027344v-42.917969c16.910156-2.160157 30.03125-16.609375 30.03125-34.097657 0-18.96875-15.429687-34.398437-34.398437-34.398437s-34.398438 15.429687-34.398438 34.398437c0 17.484376 13.121094 31.9375 30.03125 34.097657v42.917969h-100.03125c-22.855469 0-41.449219 18.59375-41.449219 41.445312v17.617188h-11.527343c-9.046876 0-16.414063 7.363281-16.414063 16.410156v27.390625c0 9.050781 7.367187 16.414062 16.414063 16.414062h11.527343v30.957031c0 22.851563 18.59375 41.441407 41.449219 41.441407h208.792969c22.859375 0 41.449219-18.589844 41.449219-41.441407v-30.957031h11.527343c9.050781 0 16.414063-7.363281 16.414063-16.414062v-27.390625c.003906-9.046875-7.359375-16.410156-16.414063-16.410156zm0 0" fill="#e6e7e8"/><path d="m271.304688 157.417969c5.410156 0 10.992187-1.105469 16.371093-3.445313 11.933594-5.195312 20.835938-15.679687 24.417969-28.769531 2.394531-8.726563 1.539062-18.519531-2.394531-27.5625l-18.667969-42.90625 22.785156-9.914063c4.339844-1.890624 6.335938-6.960937 4.441406-11.304687l-4.886718-11.238281c-1.882813-4.34375-6.96875-6.335938-11.296875-4.449219l-34.859375 15.164063c-4.339844 1.894531-6.335938 6.960937-4.445313 11.304687l18.734375 43.050781c-7.148437-.929687-14.609375.105469-21.46875 3.089844-19.257812 8.378906-28.726562 29.449219-21.109375 46.964844 5.488281 12.628906 18.382813 20.019531 32.378907 20.015625zm0 0" fill="#e6e7e8"/><path d="m410.761719 153.175781c-1.304688-1.882812-3.265625-3.148437-5.523438-3.558593l-37.40625-6.785157c-2.261719-.40625-4.539062.089844-6.421875 1.394531-1.882812 1.304688-3.148437 3.269532-3.558594 5.523438l-8.382812 46.195312c-5.402344-4.742187-12.191406-8.03125-19.550781-9.367187-9.90625-1.796875-19.894531 0-28.113281 5.058594-8.367188 5.152343-13.886719 13.046875-15.554688 22.230469-3.402344 18.792968 10.636719 37.132812 31.300781 40.882812 2.484375.449219 4.984375.671875 7.476563.671875 10.355468 0 20.554687-3.832031 28.824218-10.996094 6.84375-5.929687 11.582032-14.535156 13.339844-24.242187l8.347656-46.042969 24.445313 4.433594c4.632813.84375 9.132813-2.257813 9.984375-6.921875l2.183594-12.054688c.410156-2.25-.085938-4.53125-1.390625-6.421875zm0 0" fill="#e6e7e8"/><path d="m16.390625 324.949219c-6.652344 0-12.042969 5.390625-12.042969 12.042969v27.394531c0 6.648437 5.390625 12.042969 12.042969 12.042969h15.894531v-51.480469zm0 0" fill="#fa759e"/><path d="m331.136719 324.949219h-15.894531v51.480469h15.894531c6.652343 0 12.046875-5.394532 12.046875-12.042969v-27.394531c0-6.652344-5.394532-12.042969-12.046875-12.042969zm0 0" fill="#fa759e"/><path d="m278.164062 265.890625h-208.800781c-20.476562 0-37.078125 16.597656-37.078125 37.074219v108.792968c0 20.476563 16.601563 37.074219 37.078125 37.074219h208.800781c20.472657 0 37.074219-16.597656 37.074219-37.074219v-108.792968c.003907-20.480469-16.597656-37.074219-37.074219-37.074219zm0 0" fill="#6dc9f7"/><path d="m144.757812 340.292969c-3.808593-16.140625-19.984374-26.136719-36.128906-22.324219-16.140625 3.8125-26.136718 19.984375-22.324218 36.128906 3.8125 16.140625 19.988281 26.136719 36.128906 22.324219s26.136718-19.988281 22.324218-36.128906zm0 0" fill="#fff"/><path d="m98.59375 360.324219c0 4.914062 1.203125 9.535156 3.296875 13.632812 4.097656 2.09375 8.714844 3.296875 13.632813 3.296875 16.585937 0 30.03125-13.449218 30.03125-30.03125 0-4.914062-1.203126-9.539062-3.296876-13.632812-4.09375-2.09375-8.71875-3.296875-13.632812-3.296875-16.582031 0-30.03125 13.449219-30.03125 30.03125zm0 0" fill="#fa759e"/><path d="m255.0625 325.984375c-11.726562-11.726563-30.742188-11.726563-42.472656 0-11.726563 11.730469-11.726563 30.742187 0 42.472656 11.730468 11.726563 30.746094 11.726563 42.472656 0 11.730469-11.730469 11.730469-30.742187 0-42.472656zm0 0" fill="#fff"/><path d="m216.90625 360.324219c0 4.914062 1.203125 9.535156 3.296875 13.632812 4.09375 2.09375 8.71875 3.296875 13.632813 3.296875 16.585937 0 30.03125-13.449218 30.03125-30.03125 0-4.914062-1.203126-9.539062-3.296876-13.632812-4.097656-2.09375-8.714843-3.296875-13.632812-3.296875-16.585938 0-30.03125 13.449219-30.03125 30.03125zm0 0" fill="#fa759e"/><path d="m203.796875 184.503906c0 16.585938-13.445313 30.03125-30.03125 30.03125s-30.03125-13.445312-30.03125-30.03125c0-16.585937 13.445313-30.03125 30.03125-30.03125s30.03125 13.445313 30.03125 30.03125zm0 0" fill="#fa759e"/><path d="m286.335938 4.359375-34.859376 15.164063c-2.132812.929687-3.113281 3.417968-2.183593 5.554687l11.910156 27.375 10.390625 23.882813c-8.183594-3.3125-18.0625-3.382813-27.296875.636718-17.050781 7.421875-25.503906 25.910156-18.84375 41.214844 6.660156 15.308594 25.949219 21.726562 43 14.308594 11.371094-4.941406 18.917969-14.8125 21.953125-25.914063 2.234375-8.171875 1.191406-16.902343-2.1875-24.667969l-20.414062-46.917968 26.785156-11.65625c2.136718-.925782 3.117187-3.414063 2.183594-5.550782l-4.890626-11.238281c-.925781-2.140625-3.410156-3.117187-5.546874-2.191406zm0 0" fill="#6dc9f7"/><path d="m386.976562 136.441406-37.402343-6.785156c-2.292969-.414062-4.488281 1.105469-4.902344 3.402344l-5.328125 29.375-4.648438 25.628906c-4.960937-7.308594-13.128906-12.859375-23.039062-14.65625-18.296875-3.320312-35.605469 7.34375-38.585938 23.769531-2.980468 16.429688 9.480469 32.488281 27.78125 35.804688 12.199219 2.210937 23.953126-1.789063 32.660157-9.328125 6.402343-5.546875 10.386719-13.378906 11.898437-21.714844l9.128906-50.339844 28.742188 5.210938c2.292969.417968 4.488281-1.105469 4.90625-3.398438l2.1875-12.0625c.417969-2.292968-1.105469-4.492187-3.398438-4.90625zm0 0" fill="#ffd7e5"/><g fill="#3a2c60"><path d="m331.136719 320.949219h-11.898438v-17.984375c0-22.652344-18.421875-41.074219-41.078125-41.074219h-100.402344v-43.609375c16.882813-1.988281 30.035157-16.367188 30.035157-33.78125 0-18.761719-15.265625-34.03125-34.035157-34.03125-18.765624 0-34.03125 15.269531-34.03125 34.03125 0 17.414062 13.148438 31.789062 30.03125 33.78125v43.605469h-100.398437c-22.652344 0-41.082031 18.421875-41.082031 41.074219v17.984374h-11.898438c-8.847656 0-16.042968 7.195313-16.042968 16.042969v27.394531c0 8.847657 7.195312 16.042969 16.042968 16.042969h11.898438v31.328125c0 22.652344 18.425781 41.074219 41.082031 41.074219h40.320313c2.210937 0 4-1.792969 4-4s-1.789063-4-4-4h-40.320313c-18.242187 0-33.082031-14.835937-33.082031-33.074219v-108.789062c0-18.238282 14.839844-33.074219 33.082031-33.074219h208.796875c18.238281 0 33.078125 14.835937 33.078125 33.074219v108.796875c0 18.238281-14.839844 33.074219-33.078125 33.074219h-92.015625c-2.210937 0-4 1.792968-4 4 0 2.210937 1.789063 4 4 4h92.023437c22.652344 0 41.078126-18.421876 41.078126-41.074219v-31.328125h11.898437c8.851563 0 16.046875-7.195313 16.046875-16.042969v-27.394531c-.003906-8.851563-7.199219-16.046875-16.050781-16.046875zm-183.402344-136.445313c0-14.355468 11.675781-26.03125 26.03125-26.03125s26.035156 11.675782 26.035156 26.03125c0 14.355469-11.683593 26.035156-26.039062 26.035156s-26.027344-11.679687-26.027344-26.035156zm-131.34375 187.925782c-4.433594 0-8.042969-3.609376-8.042969-8.042969v-27.394531c0-4.433594 3.605469-8.042969 8.042969-8.042969h11.898437v43.484375h-11.898437zm322.792969-8.042969c0 4.433593-3.609375 8.042969-8.046875 8.042969h-11.898438v-43.480469h11.898438c4.433593 0 8.046875 3.609375 8.046875 8.042969zm0 0"/><path d="m167.9375 444.832031h-38.589844c-2.214844 0-4 1.792969-4 4s1.785156 4 4 4h38.589844c2.214844 0 4-1.792969 4-4s-1.785156-4-4-4zm0 0"/><path d="m237.832031 410.886719c0-2.210938-1.789062-4-4-4h-115.976562c-2.214844 0-4 1.789062-4 4 0 2.207031 1.785156 4 4 4h115.976562c2.210938 0 4-1.789063 4-4zm0 0"/><path d="m149.558594 347.222656c0-18.769531-15.269532-34.039062-34.035156-34.039062-18.769532 0-34.035157 15.269531-34.035157 34.039062 0 18.761719 15.265625 34.03125 34.035157 34.03125 18.765624 0 34.035156-15.269531 34.035156-34.03125zm-60.070313 0c0-14.359375 11.679688-26.039062 26.035157-26.039062 14.355468 0 26.035156 11.679687 26.035156 26.039062 0 14.355469-11.679688 26.03125-26.035156 26.03125-14.355469 0-26.035157-11.675781-26.035157-26.03125zm0 0"/><path d="m267.867188 347.222656c0-18.769531-15.269532-34.039062-34.035157-34.039062-18.769531 0-34.035156 15.269531-34.035156 34.039062 0 18.761719 15.265625 34.03125 34.035156 34.03125 18.765625 0 34.035157-15.269531 34.035157-34.03125zm-60.070313 0c0-14.359375 11.675781-26.039062 26.035156-26.039062 14.355469 0 26.035157 11.679687 26.035157 26.039062 0 14.355469-11.679688 26.03125-26.035157 26.03125-14.359375 0-26.035156-11.675781-26.035156-26.03125zm0 0"/><path d="m253.828125 139.574219c5.367187 0 10.894531-1.097657 16.222656-3.417969 11.835938-5.152344 20.660157-15.546875 24.214844-28.527344 2.367187-8.648437 1.523437-18.347656-2.378906-27.320312l-18.816407-43.246094 23.121094-10.0625c2.011719-.875 3.5625-2.484375 4.367188-4.523438.804687-2.039062.765625-4.277343-.109375-6.292968l-4.890625-11.238282c-.875-2.011718-2.484375-3.5625-4.527344-4.367187-2.058594-.8125-4.277344-.761719-6.292969.109375l-34.855469 15.171875c-4.152343 1.808594-6.0625 6.660156-4.253906 10.816406l18.988282 43.65625c-7.242188-1.070312-14.902344-.074219-21.914063 2.972657-19.074219 8.300781-28.453125 29.152343-20.917969 46.480468 5.433594 12.484375 18.199219 19.789063 32.042969 19.789063zm-7.9375-58.9375c4.179687-1.820313 8.628906-2.730469 13.011719-2.730469 3.859375 0 7.667968.710938 11.191406 2.132812 1.503906.613282 3.234375.25 4.363281-.914062 1.136719-1.164062 1.453125-2.894531.804688-4.386719l-22.183594-51.542969 34.855469-15.167968-1.59375-3.667969 1.882812 3.78125 4.773438 11.527344-26.785156 11.65625c-.976563.425781-1.742188 1.214843-2.128907 2.203125-.386719.988281-.367187 2.089844.054688 3.0625l20.417969 46.914062c3.175781 7.304688 3.886718 15.121094 1.996093 22.011719-2.914062 10.632813-10.085937 19.128906-19.691406 23.304687-15.035156 6.535157-31.957031 1.046876-37.738281-12.234374s1.742187-29.410157 16.769531-35.949219zm0 0"/><path d="m387.695312 132.503906-37.40625-6.78125c-4.484374-.820312-8.742187 2.160156-9.558593 6.617188l-8.492188 46.84375c-5.433593-4.929688-12.347656-8.355469-19.867187-9.71875-20.46875-3.710938-39.863282 8.394531-43.242188 26.992187-3.367187 18.597657 10.542969 36.742188 31.003906 40.457031 2.464844.445313 4.941407.667969 7.414063.667969 10.269531 0 20.382813-3.804687 28.578125-10.910156 6.78125-5.867187 11.476562-14.402344 13.226562-24.027344l8.414063-46.402343 24.804687 4.5c2.164063.386718 4.347657-.085938 6.148438-1.332032 1.808594-1.253906 3.019531-3.132812 3.410156-5.292968l2.191406-12.0625c.796876-4.453126-2.167968-8.742188-6.625-9.550782zm-1.257812 8.128906-2.4375 12.234376-28.746094-5.210938c-1.042968-.183594-2.121094.042969-2.992187.648438-.871094.605468-1.46875 1.527343-1.660157 2.578124l-9.128906 50.339844c-1.414062 7.832032-5.179687 14.726563-10.582031 19.40625-8.328125 7.21875-19.023437 10.285156-29.320313 8.417969-16.125-2.925781-27.144531-16.90625-24.558593-31.15625 2.257812-12.472656 14.199219-21.089844 27.949219-21.089844 1.964843 0 3.964843.175781 5.980468.539063 8.4375 1.527344 15.894532 6.257812 20.445313 12.964844.914062 1.34375 2.539062 2.003906 4.136719 1.667968 1.585937-.335937 2.816406-1.601562 3.105468-3.199218l10.230469-55.175782 37.402344 6.785156.714843-3.9375zm0 0"/></g></svg>